<svg width="157" height="113" viewBox="0 0 157 113" fill="none" xmlns="http://www.w3.org/2000/svg">
<path d="M38.7305 24.9609C38.9648 25.1953 39.2461 25.6406 39.5742 26.2969C39.9492 26.9531 39.9727 27.5391 39.6445 28.0547C39.5508 28.2891 39.0117 28.6875 38.0273 29.25C37.0898 29.8125 35.9414 30.4688 34.582 31.2188C33.2695 31.9219 31.8398 32.6719 30.293 33.4688C28.7461 34.2656 27.3164 35.0156 26.0039 35.7188C27.2695 36.4219 28.6055 37.1953 30.0117 38.0391C31.418 38.8359 32.707 39.6094 33.8789 40.3594C35.0977 41.0625 36.1289 41.6953 36.9727 42.2578C37.8164 42.8203 38.2852 43.1953 38.3789 43.3828C38.6602 43.9453 38.6133 44.5312 38.2383 45.1406C37.8633 45.75 37.5352 46.1719 37.2539 46.4062C37.1133 46.5469 36.6211 46.4766 35.7773 46.1953C34.9336 45.9141 33.9023 45.5391 32.6836 45.0703C31.4648 44.5547 30.1289 43.9922 28.6758 43.3828C27.2695 42.7266 25.9336 42.0938 24.668 41.4844C23.4023 40.875 22.3008 40.3125 21.3633 39.7969C20.4258 39.2812 19.8398 38.9062 19.6055 38.6719C19.2773 38.3906 19.043 37.9453 18.9023 37.3359C18.8086 36.7266 18.7617 36.0938 18.7617 35.4375C18.7617 34.7812 18.8086 34.1953 18.9023 33.6797C19.043 33.1172 19.1836 32.7891 19.3242 32.6953C19.6055 32.4609 20.2617 32.0859 21.293 31.5703C22.3242 31.0547 23.5195 30.4922 24.8789 29.8828C26.2852 29.2734 27.7617 28.6641 29.3086 28.0547C30.9023 27.3984 32.3555 26.8359 33.668 26.3672C35.0273 25.8516 36.1758 25.4766 37.1133 25.2422C38.0508 24.9609 38.5898 24.8672 38.7305 24.9609ZM58.1367 26.4375C59.2148 27 60.293 27.6094 61.3711 28.2656C62.4961 28.9219 63.5273 29.5547 64.4648 30.1641C65.4023 30.7266 66.1758 31.2656 66.7852 31.7812C67.4414 32.25 67.8633 32.625 68.0508 32.9062C68.2852 33.2812 68.4023 33.8672 68.4023 34.6641C68.4023 35.4141 68.332 36.2578 68.1914 37.1953C68.0977 38.0859 67.9336 38.9766 67.6992 39.8672C67.4648 40.7109 67.207 41.3906 66.9258 41.9062C66.5977 42.5625 65.8477 43.4062 64.6758 44.4375C63.5508 45.4688 62.2852 46.5 60.8789 47.5312C59.4727 48.5625 58.0898 49.4766 56.7305 50.2734C55.418 51.0703 54.4102 51.5625 53.707 51.75C53.1914 51.8906 52.418 52.0312 51.3867 52.1719C50.4023 52.3125 49.3711 52.4297 48.293 52.5234C47.2148 52.6172 46.2305 52.6875 45.3398 52.7344C44.4961 52.7344 43.9805 52.6875 43.793 52.5938C43.418 52.3594 43.0898 52.0078 42.8086 51.5391C42.5742 51.0703 42.457 50.4609 42.457 49.7109C42.5508 48.0703 42.7383 46.9453 43.0195 46.3359C43.1133 46.1953 43.2305 46.125 43.3711 46.125C43.5117 46.0781 43.7461 46.0547 44.0742 46.0547C44.4023 46.0547 44.8242 46.0547 45.3398 46.0547C45.8555 46.0547 46.5352 46.0312 47.3789 45.9844C47.1445 43.5938 46.9336 41.3203 46.7461 39.1641C46.5586 37.0078 46.3945 35.1094 46.2539 33.4688C46.0664 31.5469 45.9258 29.7422 45.832 28.0547C45.7383 26.4141 45.5977 24.5859 45.4102 22.5703C45.2695 20.8359 45.1055 18.8203 44.918 16.5234C44.7305 14.2266 44.5195 11.7422 44.2852 9.07031C43.8633 9.07031 43.3711 9.07031 42.8086 9.07031C42.2461 9.07031 41.6836 9.07031 41.1211 9.07031C40.6055 9.02344 40.1602 8.97656 39.7852 8.92969C39.3633 8.83594 39.1055 8.71875 39.0117 8.57812C38.8242 8.29688 38.6836 7.78125 38.5898 7.03125C38.4961 6.23437 38.4492 5.46094 38.4492 4.71094C38.4492 3.91406 38.5898 3.14062 38.8711 2.39062C39.1523 1.59375 39.4805 1.07813 39.8555 0.84375C39.9492 0.796875 40.3242 0.796875 40.9805 0.84375C41.6367 0.84375 42.4336 0.914062 43.3711 1.05469C44.3086 1.14844 45.3164 1.28906 46.3945 1.47656C47.5195 1.61719 48.5742 1.78125 49.5586 1.96875C50.543 2.10938 51.4102 2.25 52.1602 2.39062C52.9102 2.53125 53.4258 2.625 53.707 2.67188C54.1758 2.76563 55.0664 3.02344 56.3789 3.44531C57.7383 3.82031 59.1914 4.26562 60.7383 4.78125C62.2852 5.29688 63.7617 5.88281 65.168 6.53906C66.5742 7.14844 67.5586 7.75781 68.1211 8.36719C68.3555 8.60156 68.5664 9.25781 68.7539 10.3359C68.9883 11.4141 69.1523 12.6094 69.2461 13.9219C69.3867 15.2344 69.4336 16.4766 69.3867 17.6484C69.3867 18.7734 69.2695 19.5234 69.0352 19.8984C68.8477 20.1797 68.1914 20.6719 67.0664 21.375C65.9414 22.0781 64.6992 22.8047 63.3398 23.5547C61.793 24.3984 60.0586 25.3594 58.1367 26.4375ZM52.793 25.0312C53.4023 24.75 54.2227 24.1875 55.2539 23.3438C56.332 22.5 57.3867 21.5625 58.418 20.5312C59.4961 19.4531 60.4102 18.375 61.1602 17.2969C61.957 16.1719 62.3555 15.2109 62.3555 14.4141C62.3555 14.1797 62.0977 13.875 61.582 13.5C61.1133 13.125 60.457 12.75 59.6133 12.375C58.7695 12 57.7617 11.625 56.5898 11.25C55.4648 10.8281 54.2461 10.4531 52.9336 10.125L52.793 25.0312ZM52.7227 45.2109C54.0352 44.9297 55.2773 44.4844 56.4492 43.875C57.6211 43.2656 58.6523 42.6094 59.543 41.9062C60.4336 41.1562 61.1367 40.4062 61.6523 39.6562C62.168 38.9062 62.4258 38.2266 62.4258 37.6172C62.4258 37.0078 62.0273 36.3281 61.2305 35.5781C60.4805 34.8281 59.5664 34.0781 58.4883 33.3281C57.457 32.5781 56.4023 31.8984 55.3242 31.2891C54.2461 30.6797 53.4023 30.2344 52.793 29.9531L52.7227 45.2109ZM80.0039 32.0625C80.0039 32.6719 79.9805 33.6328 79.9336 34.9453C79.9336 36.2578 79.9102 37.7344 79.8633 39.375C79.8164 41.0156 79.7461 42.7266 79.6523 44.5078C79.6055 46.2422 79.5117 47.8359 79.3711 49.2891C79.2305 50.6953 79.0664 51.8672 78.8789 52.8047C78.7383 53.7422 78.5508 54.2109 78.3164 54.2109C77.6133 54.2109 76.9336 53.7188 76.2773 52.7344C75.668 51.7031 75.0352 50.6016 74.3789 49.4297C74.2383 49.1484 74.0742 48.3281 73.8867 46.9688C73.7461 45.5625 73.582 43.8047 73.3945 41.6953C73.2539 39.5859 73.1133 37.2422 72.9727 34.6641C72.832 32.0859 72.6914 29.4609 72.5508 26.7891C72.4102 24.1172 72.293 21.4922 72.1992 18.9141C72.1523 16.3359 72.1055 14.0156 72.0586 11.9531C72.0117 9.89062 72.0117 8.17969 72.0586 6.82031C72.1055 5.41406 72.1992 4.59375 72.3398 4.35938C72.5273 4.03125 73.1836 3.79688 74.3086 3.65625C75.4336 3.46875 76.793 3.375 78.3867 3.375C80.0273 3.375 81.7852 3.42187 83.6602 3.51562C85.5352 3.60938 87.2695 3.75 88.8633 3.9375C90.5039 4.07812 91.8633 4.24219 92.9414 4.42969C94.0664 4.61719 94.6992 4.78125 94.8398 4.92188C95.0273 5.10937 95.0508 5.625 94.9102 6.46875C94.8164 7.26563 94.6289 8.15625 94.3477 9.14062C94.1133 10.0781 93.8086 10.9688 93.4336 11.8125C93.1055 12.6562 92.8242 13.1953 92.5898 13.4297C92.3555 13.6641 91.2539 13.6406 89.2852 13.3594C87.3633 13.0781 84.2695 12.75 80.0039 12.375V24.1172C83.2852 24.3984 85.8398 24.6562 87.668 24.8906C89.543 25.125 90.5273 25.2891 90.6211 25.3828C90.8086 25.5703 90.8789 25.9453 90.832 26.5078C90.7852 27.0703 90.668 27.6797 90.4805 28.3359C90.293 28.9453 90.0586 29.5312 89.7773 30.0938C89.4961 30.6094 89.2148 30.9609 88.9336 31.1484C88.793 31.2422 87.9492 31.3828 86.4023 31.5703C84.9023 31.7578 82.7695 31.9219 80.0039 32.0625ZM117.129 2.39062C117.129 2.57812 116.848 3.42187 116.285 4.92188C115.77 6.42188 115.043 8.34375 114.105 10.6875C113.215 13.0313 112.16 15.6797 110.941 18.6328C109.77 21.5391 108.551 24.5156 107.285 27.5625C106.02 30.6094 104.754 33.5859 103.488 36.4922C102.27 39.3984 101.145 42.0234 100.113 44.3672C99.082 46.7109 98.2148 48.6562 97.5117 50.2031C96.8086 51.7031 96.3398 52.5469 96.1055 52.7344C95.3555 53.4375 94.6055 53.8594 93.8555 54C93.1055 54.0938 92.543 54.0938 92.168 54C92.0273 53.9531 92.1445 53.2734 92.5195 51.9609C92.8945 50.6016 93.4336 48.8203 94.1367 46.6172C94.8398 44.3672 95.6602 41.8359 96.5977 39.0234C97.582 36.1641 98.5898 33.2578 99.6211 30.3047C100.652 27.3047 101.684 24.3516 102.715 21.4453C103.793 18.4922 104.777 15.8438 105.668 13.5C106.559 11.1562 107.309 9.21094 107.918 7.66406C108.527 6.07031 108.949 5.10937 109.184 4.78125C109.605 4.125 110.238 3.53906 111.082 3.02344C111.973 2.50781 112.863 2.13281 113.754 1.89844C114.645 1.61719 115.418 1.52344 116.074 1.61719C116.777 1.66406 117.129 1.92188 117.129 2.39062ZM117.27 24.9609C117.41 24.8672 117.926 24.9609 118.816 25.2422C119.754 25.4766 120.902 25.8516 122.262 26.3672C123.621 26.8359 125.074 27.3984 126.621 28.0547C128.168 28.6641 129.645 29.2734 131.051 29.8828C132.457 30.4922 133.652 31.0547 134.637 31.5703C135.668 32.0859 136.324 32.4609 136.605 32.6953C136.746 32.7891 136.863 33.1172 136.957 33.6797C137.051 34.1953 137.098 34.7812 137.098 35.4375C137.145 36.0938 137.098 36.7266 136.957 37.3359C136.863 37.9453 136.676 38.3906 136.395 38.6719C136.113 38.9062 135.504 39.2812 134.566 39.7969C133.629 40.3125 132.527 40.875 131.262 41.4844C129.996 42.0938 128.637 42.7266 127.184 43.3828C125.777 43.9922 124.465 44.5547 123.246 45.0703C122.027 45.5391 120.996 45.9141 120.152 46.1953C119.309 46.4766 118.816 46.5469 118.676 46.4062C118.395 46.1719 118.066 45.75 117.691 45.1406C117.363 44.5312 117.34 43.9453 117.621 43.3828C117.715 43.1953 118.184 42.8203 119.027 42.2578C119.871 41.6953 120.879 41.0625 122.051 40.3594C123.27 39.6094 124.582 38.8359 125.988 38.0391C127.395 37.1953 128.73 36.4219 129.996 35.7188C128.684 35.0156 127.254 34.2656 125.707 33.4688C124.16 32.6719 122.707 31.9219 121.348 31.2188C119.988 30.4688 118.816 29.8125 117.832 29.25C116.895 28.6875 116.379 28.2891 116.285 28.0547C115.957 27.5391 115.957 26.9531 116.285 26.2969C116.66 25.6406 116.988 25.1953 117.27 24.9609ZM10.043 51.7578C10.9805 51.9453 12.2695 52.5078 13.9102 53.4453C15.5508 54.3359 17.1914 55.3672 18.832 56.5391C20.5195 57.6641 21.9961 58.7891 23.2617 59.9141C24.5273 60.9922 25.2773 61.7656 25.5117 62.2344C25.6992 62.7031 25.7695 63.5703 25.7227 64.8359C25.6758 66.1016 25.5352 67.6484 25.3008 69.4766C25.0664 71.2578 24.7617 73.2266 24.3867 75.3828C24.0117 77.5391 23.5898 79.7188 23.1211 81.9219C22.6523 84.0781 22.1367 86.1875 21.5742 88.25C21.0586 90.2656 20.5195 92.0469 19.957 93.5938C19.7227 94.3438 19.207 95.1641 18.4102 96.0547C17.6133 96.9453 16.6758 97.8359 15.5977 98.7266C14.5195 99.5703 13.3711 100.367 12.1523 101.117C10.9805 101.867 9.85547 102.5 8.77734 103.016C7.74609 103.531 6.80859 103.883 5.96484 104.07C5.16797 104.258 4.62891 104.211 4.34766 103.93C4.06641 103.648 3.76172 102.758 3.43359 101.258C3.15234 99.7109 2.87109 97.7891 2.58984 95.4922C2.30859 93.1484 2.05078 90.5469 1.81641 87.6875C1.58203 84.7812 1.37109 81.8281 1.18359 78.8281C0.996094 75.8281 0.832031 72.8984 0.691406 70.0391C0.597656 67.1328 0.527344 64.5312 0.480469 62.2344C0.480469 59.8906 0.527344 57.9453 0.621094 56.3984C0.714844 54.8047 0.878906 53.8438 1.11328 53.5156C1.30078 53.2812 1.76953 53.0469 2.51953 52.8125C3.31641 52.5781 4.18359 52.3672 5.12109 52.1797C6.10547 51.9922 7.06641 51.8516 8.00391 51.7578C8.94141 51.6641 9.62109 51.6641 10.043 51.7578ZM9.62109 60.6875C9.29297 60.9219 9.05859 61.6484 8.91797 62.8672C8.77734 64.0391 8.66016 65.4688 8.56641 67.1562C8.51953 68.7969 8.49609 70.5547 8.49609 72.4297C8.49609 74.3047 8.47266 76.0156 8.42578 77.5625C8.33203 81.5938 8.28516 84.7812 8.28516 87.125C8.33203 89.4219 8.37891 91.1562 8.42578 92.3281C8.51953 93.4531 8.63672 94.1797 8.77734 94.5078C8.91797 94.7891 9.10547 94.9297 9.33984 94.9297C9.52734 94.9297 9.83203 94.7891 10.2539 94.5078C10.7227 94.2266 11.2148 93.875 11.7305 93.4531C12.2461 93.0312 12.7383 92.5859 13.207 92.1172C13.6758 91.6016 14.0039 91.1562 14.1914 90.7812C14.3789 90.4062 14.6133 89.6797 14.8945 88.6016C15.1758 87.4766 15.457 86.1875 15.7383 84.7344C16.0195 83.2344 16.3008 81.6641 16.582 80.0234C16.8633 78.3359 17.0977 76.7422 17.2852 75.2422C17.5195 73.6953 17.6836 72.3359 17.7773 71.1641C17.918 69.9453 17.9883 69.0781 17.9883 68.5625C17.9414 67.5781 17.543 66.5703 16.793 65.5391C16.043 64.5078 15.1758 63.5938 14.1914 62.7969C13.2539 62 12.3164 61.3906 11.3789 60.9688C10.4883 60.5469 9.90234 60.4531 9.62109 60.6875ZM34.0898 83.6797C34.8398 83.3984 35.6836 83.0938 36.6211 82.7656C37.6055 82.3906 38.543 82.0625 39.4336 81.7812C40.3242 81.4531 41.1211 81.1719 41.8242 80.9375C42.5273 80.7031 43.043 80.5156 43.3711 80.375C43.3242 79.8594 43.2539 79.2734 43.1602 78.6172C43.1133 77.9141 43.043 77.2578 42.9492 76.6484C42.8555 75.9922 42.7383 75.4297 42.5977 74.9609C42.457 74.4922 42.3164 74.2109 42.1758 74.1172C41.8008 73.9766 41.168 73.8594 40.2773 73.7656C39.4336 73.625 38.543 73.6484 37.6055 73.8359C36.7148 74.0234 35.8945 74.375 35.1445 74.8906C34.3945 75.4062 33.9727 76.2266 33.8789 77.3516C33.7852 78.1016 33.7617 79.0391 33.8086 80.1641C33.8555 81.2891 33.9492 82.4609 34.0898 83.6797ZM49.3477 84.8047C49.3008 84.8984 48.7383 85.0859 47.6602 85.3672C46.582 85.6484 45.293 85.9531 43.793 86.2812C42.293 86.5625 40.6992 86.8672 39.0117 87.1953C37.3242 87.4766 35.8711 87.7109 34.6523 87.8984C34.8867 89.7734 35.168 91.4609 35.4961 92.9609C35.8242 94.4141 36.1055 95.3281 36.3398 95.7031C36.5742 96.0312 36.8789 96.3359 37.2539 96.6172C37.582 96.8516 37.9805 97.0859 38.4492 97.3203C38.9648 97.5078 39.5742 97.6484 40.2773 97.7422C40.793 97.8828 41.2852 97.6953 41.7539 97.1797C42.1289 96.7109 42.457 95.8906 42.7383 94.7188C43.0664 93.5469 43.2305 91.6953 43.2305 89.1641C44.6836 88.9297 45.8086 88.7891 46.6055 88.7422C47.4492 88.6953 48.0586 88.6953 48.4336 88.7422C48.9023 88.7891 49.1836 88.8594 49.2773 88.9531C49.3242 89.0938 49.3242 89.4453 49.2773 90.0078C49.2305 90.5703 49.1133 91.2734 48.9258 92.1172C48.7852 92.9141 48.5977 93.8047 48.3633 94.7891C48.1758 95.7266 47.9414 96.6406 47.6602 97.5312C47.3789 98.375 47.0742 99.1484 46.7461 99.8516C46.418 100.508 46.0664 100.977 45.6914 101.258C44.5664 102.102 43.1602 102.523 41.4727 102.523C39.7852 102.477 38.1211 102.242 36.4805 101.82C34.8398 101.352 33.3633 100.812 32.0508 100.203C30.7383 99.5469 29.918 99.0078 29.5898 98.5859C29.3555 98.3047 29.1445 97.6016 28.957 96.4766C28.7695 95.3047 28.6055 93.8984 28.4648 92.2578C28.3711 90.6172 28.3008 88.8125 28.2539 86.8438C28.207 84.875 28.2305 82.9531 28.3242 81.0781C28.4648 79.2031 28.6523 77.4688 28.8867 75.875C29.168 74.2812 29.543 72.9922 30.0117 72.0078C30.7148 70.6016 31.8633 69.4531 33.457 68.5625C35.0508 67.6719 36.7383 67.0625 38.5195 66.7344C40.3008 66.4062 41.9883 66.3594 43.582 66.5938C45.2227 66.8281 46.4414 67.3438 47.2383 68.1406C47.707 68.6094 48.1289 69.5469 48.5039 70.9531C48.8789 72.3125 49.1133 73.9766 49.207 75.9453C49.207 76.1328 49.2305 76.6719 49.2773 77.5625C49.3242 78.4531 49.3477 79.4141 49.3477 80.4453C49.3945 81.4297 49.418 82.3672 49.418 83.2578C49.418 84.1484 49.3945 84.6641 49.3477 84.8047ZM74.3086 69.4062C74.3555 69.9219 74.2617 70.7188 74.0273 71.7969C73.8398 72.875 73.5352 73.9531 73.1133 75.0312C72.7383 76.1094 72.2227 77.0469 71.5664 77.8438C70.957 78.6406 70.2539 79.0391 69.457 79.0391C68.8945 79.0391 68.4258 78.5938 68.0508 77.7031C67.7227 76.8125 67.4648 75.7812 67.2773 74.6094C67.1367 73.3906 67.0195 72.1953 66.9258 71.0234C66.832 69.8516 66.7383 69.0312 66.6445 68.5625C66.5039 68.3281 66.2227 68.1172 65.8008 67.9297C65.4258 67.6953 65.0508 67.5781 64.6758 67.5781C64.3008 67.5781 63.8789 67.8828 63.4102 68.4922C62.9414 69.1016 62.4727 69.8047 62.0039 70.6016C61.582 71.3984 61.207 72.1953 60.8789 72.9922C60.5977 73.7891 60.4805 74.375 60.5273 74.75C60.5273 75.0312 60.832 75.5234 61.4414 76.2266C62.0508 76.9297 62.8008 77.7734 63.6914 78.7578C64.6289 79.6953 65.6133 80.7266 66.6445 81.8516C67.7227 82.9297 68.707 84.0312 69.5977 85.1562C70.4883 86.2344 71.2383 87.2656 71.8477 88.25C72.5039 89.2344 72.8555 90.0781 72.9023 90.7812C72.9492 91.625 72.7148 92.7031 72.1992 94.0156C71.7305 95.3281 71.1211 96.5938 70.3711 97.8125C69.6211 99.0312 68.8242 100.086 67.9805 100.977C67.1367 101.867 66.3867 102.336 65.7305 102.383C65.0742 102.43 64.1133 102.078 62.8477 101.328C61.6289 100.531 60.3867 99.6172 59.1211 98.5859C57.9023 97.5078 56.8008 96.4531 55.8164 95.4219C54.8789 94.3906 54.3398 93.6406 54.1992 93.1719C54.0586 92.75 53.9648 92.1875 53.918 91.4844C53.918 90.7812 53.9414 90.0781 53.9883 89.375C54.082 88.6719 54.2227 88.0859 54.4102 87.6172C54.5977 87.1016 54.832 86.8438 55.1133 86.8438C55.3945 86.8438 55.957 87.3359 56.8008 88.3203C57.6445 89.2578 58.5586 90.3359 59.543 91.5547C60.5273 92.7266 61.4883 93.8047 62.4258 94.7891C63.3633 95.7266 64.043 96.1953 64.4648 96.1953C64.6992 96.1953 64.957 96.0312 65.2383 95.7031C65.5195 95.3281 65.7773 94.9062 66.0117 94.4375C66.2461 93.9688 66.4336 93.5 66.5742 93.0312C66.7617 92.5156 66.8555 92.1172 66.8555 91.8359C66.8086 91.4141 66.4336 90.8047 65.7305 90.0078C65.0273 89.2109 64.1367 88.3203 63.0586 87.3359C61.9805 86.3516 60.8086 85.3203 59.543 84.2422C58.2773 83.1172 57.1055 82.0625 56.0273 81.0781C54.9492 80.0938 54.0586 79.2031 53.3555 78.4062C52.6523 77.6094 52.2773 77 52.2305 76.5781C52.1836 76.1562 52.3242 75.5 52.6523 74.6094C52.9805 73.6719 53.4023 72.6641 53.918 71.5859C54.4336 70.4609 55.0195 69.3125 55.6758 68.1406C56.3789 66.9688 57.082 65.8906 57.7852 64.9062C58.4883 63.9219 59.168 63.125 59.8242 62.5156C60.5273 61.8594 61.1367 61.5312 61.6523 61.5312C62.6836 61.5312 63.9023 61.8125 65.3086 62.375C66.7617 62.9375 68.1445 63.6406 69.457 64.4844C70.7695 65.2812 71.8945 66.125 72.832 67.0156C73.7695 67.9062 74.2617 68.7031 74.3086 69.4062ZM84.2227 73.7656C84.3164 74 84.3633 74.75 84.3633 76.0156C84.4102 77.2344 84.4102 78.7344 84.3633 80.5156C84.3633 82.25 84.3164 84.125 84.2227 86.1406C84.1289 88.1094 84.0117 89.9844 83.8711 91.7656C83.7773 93.5 83.6602 95 83.5195 96.2656C83.3789 97.4844 83.2383 98.2109 83.0977 98.4453C82.6758 99.1016 82.043 99.5234 81.1992 99.7109C80.3555 99.8516 79.7461 99.875 79.3711 99.7812C79.1836 99.7812 78.9727 99.2422 78.7383 98.1641C78.5508 97.0859 78.3633 95.7266 78.1758 94.0859C77.9883 92.4453 77.8242 90.6641 77.6836 88.7422C77.543 86.8203 77.4258 84.9922 77.332 83.2578C77.2383 81.4766 77.1914 79.9297 77.1914 78.6172C77.1914 77.3047 77.2383 76.4609 77.332 76.0859C77.4727 75.4766 77.8711 74.9375 78.5273 74.4688C79.2305 74 79.957 73.6484 80.707 73.4141C81.5039 73.1797 82.2305 73.0859 82.8867 73.1328C83.5898 73.1328 84.0352 73.3438 84.2227 73.7656ZM84.5742 62.375C84.7617 62.75 84.832 63.2656 84.7852 63.9219C84.7852 64.5781 84.7148 65.2578 84.5742 65.9609C84.4336 66.6641 84.2461 67.3438 84.0117 68C83.7773 68.6562 83.543 69.1719 83.3086 69.5469C82.8398 70.2031 82.1367 70.625 81.1992 70.8125C80.3086 70.9531 79.6523 70.9766 79.2305 70.8828C78.9023 70.8359 78.5742 70.625 78.2461 70.25C77.918 69.8281 77.6367 69.3359 77.4023 68.7734C77.168 68.1641 77.0039 67.5078 76.9102 66.8047C76.8164 66.1016 76.8398 65.4453 76.9805 64.8359C77.1211 64.2266 77.5664 63.6875 78.3164 63.2188C79.0664 62.7031 79.8633 62.3281 80.707 62.0938C81.5508 61.8125 82.3477 61.6953 83.0977 61.7422C83.8477 61.7422 84.3398 61.9531 84.5742 62.375ZM107.426 106.25C107.332 106.531 107.051 106.977 106.582 107.586C106.113 108.195 105.551 108.828 104.895 109.484C104.238 110.141 103.582 110.727 102.926 111.242C102.27 111.758 101.73 112.086 101.309 112.227C100.371 112.508 99.3633 112.438 98.2852 112.016C97.2539 111.641 96.2461 111.125 95.2617 110.469C94.3242 109.812 93.5039 109.133 92.8008 108.43C92.0977 107.773 91.6523 107.281 91.4648 106.953C91.3242 106.625 91.1836 106.18 91.043 105.617C90.9492 105.055 90.8789 104.492 90.832 103.93C90.7852 103.367 90.7852 102.898 90.832 102.523C90.9258 102.102 91.0898 101.891 91.3242 101.891C91.5586 101.891 92.0977 102.125 92.9414 102.594C93.832 103.016 94.7461 103.461 95.6836 103.93C96.668 104.398 97.582 104.773 98.4258 105.055C99.2695 105.336 99.7852 105.289 99.9727 104.914C100.16 104.586 100.324 103.672 100.465 102.172C100.652 100.625 100.863 98.75 101.098 96.5469C101.004 96.5469 100.91 96.5703 100.816 96.6172C100.77 96.6172 100.699 96.6172 100.605 96.6172C100.184 96.7578 99.5977 96.8281 98.8477 96.8281C98.0977 96.8281 97.3008 96.7812 96.457 96.6875C95.6602 96.5938 94.8633 96.4297 94.0664 96.1953C93.3164 95.9141 92.707 95.5625 92.2383 95.1406C92.0508 94.9531 91.8398 94.6719 91.6055 94.2969C91.418 93.875 91.2773 93.3359 91.1836 92.6797C91.043 92.3984 90.8086 91.6016 90.4805 90.2891C90.1523 88.9297 89.8242 87.4062 89.4961 85.7188C89.168 83.9844 88.8633 82.25 88.582 80.5156C88.3477 78.7812 88.2773 77.3984 88.3711 76.3672C88.418 75.3359 88.6055 74.2812 88.9336 73.2031C89.2617 72.0781 89.6367 71.0234 90.0586 70.0391C90.5273 69.0547 91.0195 68.2109 91.5352 67.5078C92.0508 66.7578 92.5664 66.2422 93.082 65.9609C94.207 65.3984 95.6133 65.2812 97.3008 65.6094C98.9883 65.9375 100.793 66.5703 102.715 67.5078C102.762 67.0391 102.973 66.5234 103.348 65.9609C103.723 65.3984 104.145 64.9062 104.613 64.4844C105.129 64.0156 105.645 63.6875 106.16 63.5C106.676 63.2656 107.074 63.2422 107.355 63.4297C107.496 63.5234 107.613 64.1797 107.707 65.3984C107.801 66.5703 107.871 68.1172 107.918 70.0391C108.012 71.9141 108.059 74.0703 108.059 76.5078C108.105 78.8984 108.105 81.3828 108.059 83.9609C108.059 86.4922 108.035 89 107.988 91.4844C107.988 93.9688 107.941 96.2422 107.848 98.3047C107.801 100.367 107.73 102.102 107.637 103.508C107.59 104.914 107.52 105.828 107.426 106.25ZM102.504 72.8516C102.223 72.6641 101.895 72.4766 101.52 72.2891C101.191 72.1016 100.816 71.9141 100.395 71.7266C99.9727 71.5391 99.5039 71.375 98.9883 71.2344C98.7539 71.1406 98.4258 71.2344 98.0039 71.5156C97.6289 71.7969 97.2305 72.1953 96.8086 72.7109C96.4336 73.2266 96.1055 73.8594 95.8242 74.6094C95.543 75.3125 95.4023 76.0625 95.4023 76.8594C95.4023 76.9531 95.4258 77.3984 95.4727 78.1953C95.5195 78.9922 95.5898 79.9531 95.6836 81.0781C95.7773 82.2031 95.8711 83.4219 95.9648 84.7344C96.0586 86.0469 96.1523 87.2656 96.2461 88.3906C96.3867 89.5156 96.5039 90.4766 96.5977 91.2734C96.6914 92.0234 96.7617 92.4219 96.8086 92.4688C96.9961 92.6562 97.2539 92.75 97.582 92.75C97.957 92.75 98.3086 92.7031 98.6367 92.6094C99.0117 92.5156 99.3398 92.3984 99.6211 92.2578C99.9023 92.1172 100.113 92 100.254 91.9062C100.863 91.4844 101.238 90.6641 101.379 89.4453C101.473 89.3516 101.52 89.0938 101.52 88.6719C101.66 85.5781 101.801 82.7891 101.941 80.3047C102.082 77.7734 102.27 75.2891 102.504 72.8516ZM132.316 74.5391C132.316 75.2891 132.223 76.3672 132.035 77.7734C131.895 79.1797 131.684 80.7266 131.402 82.4141C131.121 84.0547 130.816 85.7656 130.488 87.5469C130.207 89.2812 129.902 90.875 129.574 92.3281C129.293 93.7812 129.035 95 128.801 95.9844C128.613 96.9688 128.496 97.5078 128.449 97.6016C128.355 97.7422 128.098 97.8359 127.676 97.8828C127.301 97.8828 126.855 97.8359 126.34 97.7422C125.871 97.6484 125.426 97.5078 125.004 97.3203C124.629 97.1328 124.395 96.8984 124.301 96.6172C124.254 96.4297 124.23 95.7734 124.23 94.6484C124.277 93.5234 124.324 92.1875 124.371 90.6406C124.465 89.0469 124.559 87.3594 124.652 85.5781C124.746 83.75 124.84 82.0625 124.934 80.5156C125.074 78.9219 125.168 77.5625 125.215 76.4375C125.309 75.3125 125.355 74.6328 125.355 74.3984C125.355 73.5547 125.262 72.7578 125.074 72.0078C124.934 71.2109 124.746 70.5312 124.512 69.9688C124.277 69.4062 123.996 68.9844 123.668 68.7031C123.387 68.375 123.129 68.2578 122.895 68.3516C122.285 68.4453 121.77 68.6094 121.348 68.8438C120.926 69.0312 120.574 69.2422 120.293 69.4766C119.965 69.7578 119.707 70.0859 119.52 70.4609C119.473 70.5547 119.379 70.8359 119.238 71.3047C119.145 71.7734 119.098 72.3125 119.098 72.9219C119.098 73.1094 119.098 73.7891 119.098 74.9609C119.098 76.0859 119.074 77.4453 119.027 79.0391C119.027 80.6328 119.004 82.3672 118.957 84.2422C118.957 86.0703 118.934 87.7812 118.887 89.375C118.887 90.9219 118.863 92.2578 118.816 93.3828C118.77 94.5078 118.723 95.1406 118.676 95.2812C118.582 95.5625 118.348 95.9609 117.973 96.4766C117.598 96.9453 117.176 97.3906 116.707 97.8125C116.238 98.2344 115.793 98.5625 115.371 98.7969C114.949 98.9844 114.668 98.9375 114.527 98.6562C114.387 98.5156 114.246 97.8359 114.105 96.6172C113.965 95.3516 113.801 93.8281 113.613 92.0469C113.473 90.2188 113.309 88.25 113.121 86.1406C112.934 83.9844 112.77 81.9219 112.629 79.9531C112.488 77.9844 112.371 76.2031 112.277 74.6094C112.184 73.0156 112.113 71.8672 112.066 71.1641C112.02 70.1797 111.973 69.0781 111.926 67.8594C111.879 66.5938 111.832 65.4219 111.785 64.3438C111.785 63.2188 111.785 62.2578 111.785 61.4609C111.832 60.6172 111.926 60.1016 112.066 59.9141C112.16 59.7266 112.465 59.6797 112.98 59.7734C113.543 59.8672 114.129 60.0547 114.738 60.3359C115.395 60.5703 116.004 60.875 116.566 61.25C117.129 61.5781 117.504 61.9062 117.691 62.2344C117.785 62.5156 117.902 62.8438 118.043 63.2188C118.184 63.5469 118.301 64.1094 118.395 64.9062C119.191 64.4375 120.059 64.0156 120.996 63.6406C121.934 63.2188 122.848 62.9141 123.738 62.7266C124.676 62.4922 125.566 62.4219 126.41 62.5156C127.254 62.5625 128.004 62.7969 128.66 63.2188C129.082 63.5469 129.504 64.1094 129.926 64.9062C130.395 65.7031 130.793 66.6406 131.121 67.7188C131.496 68.7969 131.777 69.9453 131.965 71.1641C132.199 72.3359 132.316 73.4609 132.316 74.5391ZM156.926 69.4062C156.973 69.9219 156.879 70.7188 156.645 71.7969C156.457 72.875 156.152 73.9531 155.73 75.0312C155.355 76.1094 154.84 77.0469 154.184 77.8438C153.574 78.6406 152.871 79.0391 152.074 79.0391C151.512 79.0391 151.043 78.5938 150.668 77.7031C150.34 76.8125 150.082 75.7812 149.895 74.6094C149.754 73.3906 149.637 72.1953 149.543 71.0234C149.449 69.8516 149.355 69.0312 149.262 68.5625C149.121 68.3281 148.84 68.1172 148.418 67.9297C148.043 67.6953 147.668 67.5781 147.293 67.5781C146.918 67.5781 146.496 67.8828 146.027 68.4922C145.559 69.1016 145.09 69.8047 144.621 70.6016C144.199 71.3984 143.824 72.1953 143.496 72.9922C143.215 73.7891 143.098 74.375 143.145 74.75C143.145 75.0312 143.449 75.5234 144.059 76.2266C144.668 76.9297 145.418 77.7734 146.309 78.7578C147.246 79.6953 148.23 80.7266 149.262 81.8516C150.34 82.9297 151.324 84.0312 152.215 85.1562C153.105 86.2344 153.855 87.2656 154.465 88.25C155.121 89.2344 155.473 90.0781 155.52 90.7812C155.566 91.625 155.332 92.7031 154.816 94.0156C154.348 95.3281 153.738 96.5938 152.988 97.8125C152.238 99.0312 151.441 100.086 150.598 100.977C149.754 101.867 149.004 102.336 148.348 102.383C147.691 102.43 146.73 102.078 145.465 101.328C144.246 100.531 143.004 99.6172 141.738 98.5859C140.52 97.5078 139.418 96.4531 138.434 95.4219C137.496 94.3906 136.957 93.6406 136.816 93.1719C136.676 92.75 136.582 92.1875 136.535 91.4844C136.535 90.7812 136.559 90.0781 136.605 89.375C136.699 88.6719 136.84 88.0859 137.027 87.6172C137.215 87.1016 137.449 86.8438 137.73 86.8438C138.012 86.8438 138.574 87.3359 139.418 88.3203C140.262 89.2578 141.176 90.3359 142.16 91.5547C143.145 92.7266 144.105 93.8047 145.043 94.7891C145.98 95.7266 146.66 96.1953 147.082 96.1953C147.316 96.1953 147.574 96.0312 147.855 95.7031C148.137 95.3281 148.395 94.9062 148.629 94.4375C148.863 93.9688 149.051 93.5 149.191 93.0312C149.379 92.5156 149.473 92.1172 149.473 91.8359C149.426 91.4141 149.051 90.8047 148.348 90.0078C147.645 89.2109 146.754 88.3203 145.676 87.3359C144.598 86.3516 143.426 85.3203 142.16 84.2422C140.895 83.1172 139.723 82.0625 138.645 81.0781C137.566 80.0938 136.676 79.2031 135.973 78.4062C135.27 77.6094 134.895 77 134.848 76.5781C134.801 76.1562 134.941 75.5 135.27 74.6094C135.598 73.6719 136.02 72.6641 136.535 71.5859C137.051 70.4609 137.637 69.3125 138.293 68.1406C138.996 66.9688 139.699 65.8906 140.402 64.9062C141.105 63.9219 141.785 63.125 142.441 62.5156C143.145 61.8594 143.754 61.5312 144.27 61.5312C145.301 61.5312 146.52 61.8125 147.926 62.375C149.379 62.9375 150.762 63.6406 152.074 64.4844C153.387 65.2812 154.512 66.125 155.449 67.0156C156.387 67.9062 156.879 68.7031 156.926 69.4062Z" fill="white"/>
</svg>
